<svg width="111" height="31" viewBox="0 0 111 31" fill="none" xmlns="http://www.w3.org/2000/svg">
<path d="M57.7981 7.79472H54.4669L52.5881 10.4967H55.9176L57.7981 7.79472ZM66.4397 14.9041C64.6947 15.0321 61.6115 16.4167 59.9322 19.442C58.2529 22.4672 58.2468 24.3348 58.2468 24.3348C58.2468 24.3348 59.1324 23.4736 60.4901 22.572C61.8478 21.6704 62.8582 21.35 62.8582 21.35C62.8582 21.35 63.1101 20.2393 63.7372 19.0776C64.3469 17.9476 65.3144 16.7711 66.5116 16.5042C68.9383 15.9624 67.7762 19.8908 65.9938 22.4524C65.0358 23.8291 61.6377 27.7856 58.7122 27.7856C55.7867 27.7856 55.2221 25.2839 55.8391 22.9447C56.4555 20.6061 57.3088 17.6347 61.5769 12.2357C65.845 6.83672 70.4648 3.63598 73.139 2.29093C75.8856 0.910288 77.0047 1.51534 77.0047 1.51534C77.0047 1.51534 73.4985 3.43084 71.5037 5.73537C69.5965 7.93807 68.4584 10.4166 69.3435 11.6312C70.1862 12.7884 73.1568 12.8101 76.4279 8.62123C79.6565 4.48622 78.8411 2.02746 78.8411 2.02746C78.8411 2.02746 79.2313 1.91475 79.4932 1.88361C81.0677 1.69774 82.329 2.06601 84.2819 2.95431C86.3279 3.88512 88.2909 5.37798 90.9806 6.59945C91.7904 5.81249 92.6917 4.97659 93.6397 4.16095C90.0136 2.59543 87.2609 0.364061 83.7045 0.150019C80.609 -0.0358462 78.1684 0.964663 78.1684 0.964663C78.1684 0.964663 77.2243 -0.17574 74.3116 0.196485C71.3989 0.569205 62.4252 3.89699 54.7901 14.7414C47.8869 24.5463 51.1395 30.1653 56.1016 30.101C61.4805 30.0308 66.5974 24.7253 68.3291 20.35C70.0608 15.9748 68.0142 14.7889 66.4397 14.9041ZM76.9991 5.79321C76.0951 7.74776 74.7642 9.11357 73.4544 10.1566C71.7746 11.4947 70.8528 11.4497 70.4537 11.1808C69.4115 10.4769 70.8098 7.8224 73.2371 5.44866C75.6543 3.08432 77.7354 2.34877 77.7354 2.34877C77.7354 2.37645 78.0815 3.44962 76.9991 5.79321ZM106.952 2.94294C104.491 4.34731 101.079 5.61921 97.8031 5.33892C96.9748 6.10167 96.0864 6.98057 95.1952 7.94203C100.88 8.93661 105.853 5.81298 108.5 3.15155C110.152 1.49211 110.967 0.0106201 110.967 0.0106201C110.967 0.0106201 109.39 1.55192 106.952 2.94294Z" fill="#F40009"/>
<path d="M57.7981 7.79472H54.4669L52.5881 10.4967H55.9176L57.7981 7.79472ZM66.4397 14.9041C64.6947 15.0321 61.6115 16.4167 59.9322 19.442C58.2529 22.4672 58.2468 24.3348 58.2468 24.3348C58.2468 24.3348 59.1324 23.4736 60.4901 22.572C61.8478 21.6704 62.8582 21.35 62.8582 21.35C62.8582 21.35 63.1101 20.2393 63.7372 19.0776C64.3469 17.9476 65.3144 16.7711 66.5116 16.5042C68.9383 15.9624 67.7762 19.8908 65.9938 22.4524C65.0358 23.8291 61.6377 27.7856 58.7122 27.7856C55.7867 27.7856 55.2221 25.2839 55.8391 22.9447C56.4555 20.6061 57.3088 17.6347 61.5769 12.2357C65.845 6.83672 70.4648 3.63598 73.139 2.29093C75.8856 0.910288 77.0047 1.51534 77.0047 1.51534C77.0047 1.51534 73.4985 3.43084 71.5037 5.73537C69.5965 7.93807 68.4584 10.4166 69.3435 11.6312C70.1862 12.7884 73.1568 12.8101 76.4279 8.62123C79.6565 4.48622 78.8411 2.02746 78.8411 2.02746C78.8411 2.02746 79.2313 1.91475 79.4932 1.88361C81.0677 1.69774 82.329 2.06601 84.2819 2.95431C86.3279 3.88512 88.2909 5.37798 90.9806 6.59945C91.7904 5.81249 92.6917 4.97659 93.6397 4.16095C90.0136 2.59543 87.2609 0.364061 83.7045 0.150019C80.609 -0.0358462 78.1684 0.964663 78.1684 0.964663C78.1684 0.964663 77.2243 -0.17574 74.3116 0.196485C71.3989 0.569205 62.4252 3.89699 54.7901 14.7414C47.8869 24.5463 51.1395 30.1653 56.1016 30.101C61.4805 30.0308 66.5974 24.7253 68.3291 20.35C70.0608 15.9748 68.0142 14.7889 66.4397 14.9041ZM76.9991 5.79321C76.0951 7.74776 74.7642 9.11357 73.4544 10.1566C71.7746 11.4947 70.8528 11.4497 70.4537 11.1808C69.4115 10.4769 70.8098 7.8224 73.2371 5.44866C75.6543 3.08432 77.7354 2.34877 77.7354 2.34877C77.7354 2.37645 78.0815 3.44962 76.9991 5.79321ZM106.952 2.94294C104.491 4.34731 101.079 5.61921 97.8031 5.33892C96.9748 6.10167 96.0864 6.98057 95.1952 7.94203C100.88 8.93661 105.853 5.81298 108.5 3.15155C110.152 1.49211 110.967 0.0106201 110.967 0.0106201C110.967 0.0106201 109.39 1.55192 106.952 2.94294Z" fill="#434343"/>
<path d="M104.263 15.2654H100.76L100.191 16.0455C100.191 16.0455 99.4768 14.9021 98.2668 14.9204C96.1935 14.952 94.1185 16.3559 91.7075 18.791C89.9401 20.575 87.0107 24.5468 87.0107 24.5468C87.0107 24.5468 84.763 27.6191 83.626 27.3783C81.6875 26.9675 85.2529 20.6061 85.2529 20.6061C85.2529 20.6061 87.1272 19.5794 89.5561 17.7667C91.0855 16.6258 92.845 15.0563 94.4624 13.6016C95.9332 12.2782 97.6666 10.4814 99.3141 8.51299C98.8922 8.57231 98.4597 8.61235 98.0188 8.63163C96.5413 10.3598 94.964 11.9065 93.6225 13.1359C91.6255 14.9659 89.7885 16.4632 88.4537 17.4182C87.1746 18.3327 86.3542 18.7445 86.3542 18.7445C86.3542 18.7445 88.7942 14.3 92.8612 9.38943C96.9281 4.47932 102.622 -0.0822903 102.176 2.08185C102.048 2.70322 101.613 3.59448 100.956 4.65233C101.419 4.56681 101.868 4.46004 102.301 4.33844C103.281 2.54454 103.615 1.06602 102.884 0.638926C99.8998 -1.10406 92.3099 6.10811 88.505 10.297C84.7005 14.4859 81.2573 20.8874 81.2573 20.8874C81.2573 20.8874 80.662 21.1088 80.0038 21.2196C79.5886 21.2898 79.4114 21.2744 79.3434 21.2507C79.3094 21.2383 79.3055 21.2176 79.3055 21.2176C79.3055 21.2176 82.6523 15.6683 79.2258 14.9323C75.9191 14.2224 70.1896 19.6481 68.1525 23.4223C66.7547 26.0115 65.966 29.2711 68.3632 30.0472C70.9593 30.888 75.369 26.6843 76.4056 25.4628C77.4423 24.2409 78.7364 22.2092 78.7364 22.2092C78.7364 22.2092 79.3696 22.1795 79.7157 22.1345C80.3778 22.048 80.6877 21.9759 80.6877 21.9759C80.6877 21.9759 80.2585 22.9729 79.7943 24.2369C78.9287 26.5938 78.1479 29.9661 81.264 30.1248C83.2492 30.2251 86.1619 27.0452 86.1619 27.0452C86.1619 27.0452 85.3783 29.8727 87.9549 30.1248C89.8571 30.3106 92.6254 27.7041 92.6254 27.7041C92.6254 27.7041 92.0223 29.9498 93.9508 30.1475C95.6016 30.3171 97.9452 28.6003 99.8669 26.7115C101.965 24.6492 103.575 22.3906 103.575 22.3906H102.355C102.355 22.3906 99.6546 26.0259 97.7585 26.9987C96.2019 27.7975 96.7352 26.5177 97.2073 25.8469C97.7279 25.1069 104.262 15.2654 104.262 15.2659L104.263 15.2654ZM77.5749 22.1123C77.527 22.2097 76.6503 23.5626 75.7123 24.6264C74.7018 25.7728 72.852 27.498 71.7401 27.1331C70.0018 26.5627 71.9146 23.2038 73.1652 21.5745C74.4159 19.9452 74.558 19.835 74.5931 19.7924C74.6283 19.7499 74.6634 19.7109 74.694 19.7613C74.7247 19.8117 75.1226 20.481 75.9085 21.0619C76.6977 21.6452 77.4568 21.9531 77.5181 21.9724C77.5794 21.9917 77.6234 22.0149 77.5749 22.1118V22.1123ZM78.3569 20.9017C78.2471 21.0638 78.1685 21.0718 77.9405 21.0179C77.5393 20.9215 75.8767 20.2398 75.8895 18.7277C75.9012 17.2541 78.2432 15.8107 79.1617 16.4276C80.0189 17.003 79.6092 18.4741 79.286 19.2245C78.9633 19.9744 78.4288 20.7954 78.3569 20.9017ZM94.2701 24.5468C93.8075 25.1094 93.4207 25.6175 93.0718 25.9744C92.3261 26.7382 91.8395 27.0936 91.4059 27.1875C91.1875 27.2345 90.9166 27.2231 90.7371 27.1267C90.1006 26.7832 90.5465 25.4455 91.6545 23.6472C92.6683 22.0036 93.8398 20.3589 95.7655 18.4657C97.6989 16.565 98.4385 16.4736 98.9797 16.4953C99.435 16.5126 99.4997 16.9372 99.4997 16.9372C99.4997 16.9372 99.4673 17.0356 99.3949 17.1468C98.7567 18.1281 95.542 23.0001 94.2696 24.5468H94.2701ZM42.6006 26.9245C40.4765 25.7604 37.7517 25.0135 34.6211 24.9893C26.5563 24.927 17.7754 28.4021 11.828 28.449C4.8133 28.5034 4.46385 23.7169 4.98385 21.0886C6.10299 15.4261 10.6314 10.0241 13.543 7.17585C16.4551 4.32756 19.5065 2.11745 22.0435 1.55243C24.5806 0.987424 24.342 2.69877 24.0316 2.93258C23.7111 2.93852 23.0964 2.99981 22.7475 3.21385C22.2013 3.54802 21.4717 4.15999 21.426 5.13034C21.3474 6.62517 23.5255 6.88717 25.1 3.75711C26.174 1.62213 24.4708 0.173274 23.0562 0.0338754C21.1161 -0.157922 18.1511 0.440209 14.6119 2.45754C8.45219 5.96822 0.212996 13.7642 0.00287836 22.4138C-0.11695 27.3482 3.51748 30.1248 8.50402 30.1248C13.4906 30.1248 20.2606 27.4164 26.8712 27.3472C30.9644 27.316 33.6134 28.5884 34.9549 30.6606C34.9549 30.6606 36.2881 28.6937 39.2571 28.5884C42.1943 28.4836 45.428 29.2137 48.0826 30.8687C47.197 29.7338 44.6934 28.0714 42.6 26.9245H42.6006Z" fill="#F40009"/>
<path d="M104.263 15.2654H100.76L100.191 16.0455C100.191 16.0455 99.4768 14.9021 98.2668 14.9204C96.1935 14.952 94.1185 16.3559 91.7075 18.791C89.9401 20.575 87.0107 24.5468 87.0107 24.5468C87.0107 24.5468 84.763 27.6191 83.626 27.3783C81.6875 26.9675 85.2529 20.6061 85.2529 20.6061C85.2529 20.6061 87.1272 19.5794 89.5561 17.7667C91.0855 16.6258 92.845 15.0563 94.4624 13.6016C95.9332 12.2782 97.6666 10.4814 99.3141 8.51299C98.8922 8.57231 98.4597 8.61235 98.0188 8.63163C96.5413 10.3598 94.964 11.9065 93.6225 13.1359C91.6255 14.9659 89.7885 16.4632 88.4537 17.4182C87.1746 18.3327 86.3542 18.7445 86.3542 18.7445C86.3542 18.7445 88.7942 14.3 92.8612 9.38943C96.9281 4.47932 102.622 -0.0822903 102.176 2.08185C102.048 2.70322 101.613 3.59448 100.956 4.65233C101.419 4.56681 101.868 4.46004 102.301 4.33844C103.281 2.54454 103.615 1.06602 102.884 0.638926C99.8998 -1.10406 92.3099 6.10811 88.505 10.297C84.7005 14.4859 81.2573 20.8874 81.2573 20.8874C81.2573 20.8874 80.662 21.1088 80.0038 21.2196C79.5886 21.2898 79.4114 21.2744 79.3434 21.2507C79.3094 21.2383 79.3055 21.2176 79.3055 21.2176C79.3055 21.2176 82.6523 15.6683 79.2258 14.9323C75.9191 14.2224 70.1896 19.6481 68.1525 23.4223C66.7547 26.0115 65.966 29.2711 68.3632 30.0472C70.9593 30.888 75.369 26.6843 76.4056 25.4628C77.4423 24.2409 78.7364 22.2092 78.7364 22.2092C78.7364 22.2092 79.3696 22.1795 79.7157 22.1345C80.3778 22.048 80.6877 21.9759 80.6877 21.9759C80.6877 21.9759 80.2585 22.9729 79.7943 24.2369C78.9287 26.5938 78.1479 29.9661 81.264 30.1248C83.2492 30.2251 86.1619 27.0452 86.1619 27.0452C86.1619 27.0452 85.3783 29.8727 87.9549 30.1248C89.8571 30.3106 92.6254 27.7041 92.6254 27.7041C92.6254 27.7041 92.0223 29.9498 93.9508 30.1475C95.6016 30.3171 97.9452 28.6003 99.8669 26.7115C101.965 24.6492 103.575 22.3906 103.575 22.3906H102.355C102.355 22.3906 99.6546 26.0259 97.7585 26.9987C96.2019 27.7975 96.7352 26.5177 97.2073 25.8469C97.7279 25.1069 104.262 15.2654 104.262 15.2659L104.263 15.2654ZM77.5749 22.1123C77.527 22.2097 76.6503 23.5626 75.7123 24.6264C74.7018 25.7728 72.852 27.498 71.7401 27.1331C70.0018 26.5627 71.9146 23.2038 73.1652 21.5745C74.4159 19.9452 74.558 19.835 74.5931 19.7924C74.6283 19.7499 74.6634 19.7109 74.694 19.7613C74.7247 19.8117 75.1226 20.481 75.9085 21.0619C76.6977 21.6452 77.4568 21.9531 77.5181 21.9724C77.5794 21.9917 77.6234 22.0149 77.5749 22.1118V22.1123ZM78.3569 20.9017C78.2471 21.0638 78.1685 21.0718 77.9405 21.0179C77.5393 20.9215 75.8767 20.2398 75.8895 18.7277C75.9012 17.2541 78.2432 15.8107 79.1617 16.4276C80.0189 17.003 79.6092 18.4741 79.286 19.2245C78.9633 19.9744 78.4288 20.7954 78.3569 20.9017ZM94.2701 24.5468C93.8075 25.1094 93.4207 25.6175 93.0718 25.9744C92.3261 26.7382 91.8395 27.0936 91.4059 27.1875C91.1875 27.2345 90.9166 27.2231 90.7371 27.1267C90.1006 26.7832 90.5465 25.4455 91.6545 23.6472C92.6683 22.0036 93.8398 20.3589 95.7655 18.4657C97.6989 16.565 98.4385 16.4736 98.9797 16.4953C99.435 16.5126 99.4997 16.9372 99.4997 16.9372C99.4997 16.9372 99.4673 17.0356 99.3949 17.1468C98.7567 18.1281 95.542 23.0001 94.2696 24.5468H94.2701ZM42.6006 26.9245C40.4765 25.7604 37.7517 25.0135 34.6211 24.9893C26.5563 24.927 17.7754 28.4021 11.828 28.449C4.8133 28.5034 4.46385 23.7169 4.98385 21.0886C6.10299 15.4261 10.6314 10.0241 13.543 7.17585C16.4551 4.32756 19.5065 2.11745 22.0435 1.55243C24.5806 0.987424 24.342 2.69877 24.0316 2.93258C23.7111 2.93852 23.0964 2.99981 22.7475 3.21385C22.2013 3.54802 21.4717 4.15999 21.426 5.13034C21.3474 6.62517 23.5255 6.88717 25.1 3.75711C26.174 1.62213 24.4708 0.173274 23.0562 0.0338754C21.1161 -0.157922 18.1511 0.440209 14.6119 2.45754C8.45219 5.96822 0.212996 13.7642 0.00287836 22.4138C-0.11695 27.3482 3.51748 30.1248 8.50402 30.1248C13.4906 30.1248 20.2606 27.4164 26.8712 27.3472C30.9644 27.316 33.6134 28.5884 34.9549 30.6606C34.9549 30.6606 36.2881 28.6937 39.2571 28.5884C42.1943 28.4836 45.428 29.2137 48.0826 30.8687C47.197 29.7338 44.6934 28.0714 42.6 26.9245H42.6006Z" fill="#434343"/>
<path d="M24.2344 7.49223C20.8536 6.728 15.2389 11.8324 12.873 15.9867C11.4138 18.5492 10.774 21.7697 13.3718 22.6076C15.9696 23.4455 20.377 19.2447 21.4137 18.0233C22.4503 16.8013 24.1469 14.3539 24.1469 14.3539C24.1469 14.3539 24.6674 14.2649 25.0085 14.1947C25.3496 14.1246 25.9008 13.9852 25.9008 13.9852C25.9008 13.9852 25.2616 14.9955 24.6847 16.0312C24.0009 17.2591 22.1427 21.3466 25.7303 22.5725C29.158 23.7436 34.0375 18.8602 34.2939 18.7677C34.2939 18.7677 32.8414 22.0955 35.0976 22.6076C37.5733 23.1692 40.2864 20.356 40.2864 20.356C40.2864 20.356 39.7151 22.4677 41.6441 22.666C45.0985 23.0204 51.2087 15.1839 51.2087 15.1839H49.9881C49.9881 15.1839 46.8787 18.7326 45.3833 19.4657C43.888 20.1988 44.4258 18.8963 44.8321 18.3139C45.3504 17.5729 51.9561 7.78338 51.9561 7.78338H48.4532L48.0468 8.35334C48.0468 8.35334 47.3251 7.37606 46.1184 7.44576C42.6077 7.64893 38.4305 12.6119 36.5935 14.7993C34.757 16.9872 30.7949 21.1642 28.7087 20.4198C26.4353 19.6081 28.6959 15.8819 30.1913 13.694C31.8193 11.3124 34.7046 8.95344 35.8455 8.93515C37.2495 8.91192 36.6982 10.0405 36.6982 10.0405C36.6982 10.0405 35.6488 9.92429 34.888 10.7735C34.3496 11.3741 33.9037 12.2511 34.4154 12.7281C35.2419 13.4987 36.3181 12.7162 36.9608 11.8433C38.9644 9.123 37.4986 7.68946 35.9247 7.48036C32.5717 7.03399 29.4829 10.8546 27.1348 12.2743C25.5057 13.2585 24.8252 13.1819 24.8252 13.1819C24.8252 13.1819 27.6515 8.26436 24.235 7.49173L24.2344 7.49223ZM39.4136 16.2892C40.4274 14.6451 41.8085 13.0578 43.6059 11.0682C45.4034 9.07851 46.2979 8.91736 46.8391 8.93911C47.2944 8.9569 47.3591 9.38103 47.3591 9.38103C47.3591 9.38103 43.4538 15.4162 42.037 17.1384C41.5744 17.701 41.1787 18.1775 40.8298 18.5349C40.0841 19.2986 39.5424 19.6679 39.1244 19.7598C38.9059 19.8073 38.635 19.7954 38.455 19.6985C37.8185 19.355 38.3039 18.087 39.4131 16.2892H39.4136ZM22.8394 14.3307C22.7909 14.4276 21.6756 16.0633 20.7382 17.1271C19.7283 18.2734 17.8617 20.0055 16.7498 19.6407C15.0115 19.0703 16.8658 15.7346 18.1164 14.1058C19.3671 12.4765 19.5505 12.2669 19.5862 12.2249C19.6213 12.1819 19.6558 12.1428 19.6865 12.1937C19.7171 12.2442 20.1151 12.9698 20.9767 13.4582C21.8384 13.9471 22.7218 14.172 22.7831 14.1913C22.8444 14.2106 22.8884 14.2343 22.8399 14.3307H22.8394ZM24.2935 11.7844C23.9702 12.5353 23.6815 13.0084 23.6219 13.1201C23.526 13.299 23.2858 13.2417 23.2858 13.2417C23.0121 13.2308 20.8848 12.8003 20.897 11.2881C20.9087 9.81455 23.2512 8.37113 24.1692 8.98805C25.0264 9.56344 24.6167 11.0345 24.2935 11.7844ZM101.628 28.3309C101.423 28.2281 101.196 28.1772 100.945 28.1772C100.695 28.1772 100.468 28.2286 100.263 28.3309C100.059 28.4337 99.8981 28.5731 99.7805 28.7506C99.6635 28.9275 99.6044 29.1203 99.6044 29.3279C99.6044 29.5356 99.6629 29.7318 99.7805 29.9078C99.8975 30.0833 100.059 30.2227 100.263 30.325C100.468 30.4278 100.695 30.4787 100.945 30.4787C101.196 30.4787 101.423 30.4273 101.628 30.325C101.832 30.2227 101.993 30.0833 102.11 29.9078C102.227 29.7323 102.286 29.539 102.286 29.3279C102.286 29.1169 102.228 28.9275 102.11 28.7506C101.993 28.5736 101.832 28.4337 101.628 28.3309ZM101.868 29.8045C101.779 29.9449 101.654 30.0551 101.494 30.1357C101.334 30.2157 101.151 30.2558 100.945 30.2558C100.74 30.2558 100.556 30.2157 100.396 30.1357C100.236 30.0556 100.112 29.9454 100.023 29.8045C99.9343 29.6641 99.8897 29.5049 99.8897 29.3279C99.8897 29.151 99.9343 28.9963 100.023 28.8559C100.112 28.7155 100.237 28.6052 100.399 28.5247C100.56 28.4441 100.742 28.4045 100.945 28.4045C101.148 28.4045 101.33 28.4446 101.492 28.5247C101.654 28.6047 101.779 28.715 101.868 28.8559C101.956 28.9963 102.001 29.1539 102.001 29.3279C102.001 29.5019 101.956 29.6641 101.868 29.8045Z" fill="#F40009"/>
<path d="M24.2344 7.49223C20.8536 6.728 15.2389 11.8324 12.873 15.9867C11.4138 18.5492 10.774 21.7697 13.3718 22.6076C15.9696 23.4455 20.377 19.2447 21.4137 18.0233C22.4503 16.8013 24.1469 14.3539 24.1469 14.3539C24.1469 14.3539 24.6674 14.2649 25.0085 14.1947C25.3496 14.1246 25.9008 13.9852 25.9008 13.9852C25.9008 13.9852 25.2616 14.9955 24.6847 16.0312C24.0009 17.2591 22.1427 21.3466 25.7303 22.5725C29.158 23.7436 34.0375 18.8602 34.2939 18.7677C34.2939 18.7677 32.8414 22.0955 35.0976 22.6076C37.5733 23.1692 40.2864 20.356 40.2864 20.356C40.2864 20.356 39.7151 22.4677 41.6441 22.666C45.0985 23.0204 51.2087 15.1839 51.2087 15.1839H49.9881C49.9881 15.1839 46.8787 18.7326 45.3833 19.4657C43.888 20.1988 44.4258 18.8963 44.8321 18.3139C45.3504 17.5729 51.9561 7.78338 51.9561 7.78338H48.4532L48.0468 8.35334C48.0468 8.35334 47.3251 7.37606 46.1184 7.44576C42.6077 7.64893 38.4305 12.6119 36.5935 14.7993C34.757 16.9872 30.7949 21.1642 28.7087 20.4198C26.4353 19.6081 28.6959 15.8819 30.1913 13.694C31.8193 11.3124 34.7046 8.95344 35.8455 8.93515C37.2495 8.91192 36.6982 10.0405 36.6982 10.0405C36.6982 10.0405 35.6488 9.92429 34.888 10.7735C34.3496 11.3741 33.9037 12.2511 34.4154 12.7281C35.2419 13.4987 36.3181 12.7162 36.9608 11.8433C38.9644 9.123 37.4986 7.68946 35.9247 7.48036C32.5717 7.03399 29.4829 10.8546 27.1348 12.2743C25.5057 13.2585 24.8252 13.1819 24.8252 13.1819C24.8252 13.1819 27.6515 8.26436 24.235 7.49173L24.2344 7.49223ZM39.4136 16.2892C40.4274 14.6451 41.8085 13.0578 43.6059 11.0682C45.4034 9.07851 46.2979 8.91736 46.8391 8.93911C47.2944 8.9569 47.3591 9.38103 47.3591 9.38103C47.3591 9.38103 43.4538 15.4162 42.037 17.1384C41.5744 17.701 41.1787 18.1775 40.8298 18.5349C40.0841 19.2986 39.5424 19.6679 39.1244 19.7598C38.9059 19.8073 38.635 19.7954 38.455 19.6985C37.8185 19.355 38.3039 18.087 39.4131 16.2892H39.4136ZM22.8394 14.3307C22.7909 14.4276 21.6756 16.0633 20.7382 17.1271C19.7283 18.2734 17.8617 20.0055 16.7498 19.6407C15.0115 19.0703 16.8658 15.7346 18.1164 14.1058C19.3671 12.4765 19.5505 12.2669 19.5862 12.2249C19.6213 12.1819 19.6558 12.1428 19.6865 12.1937C19.7171 12.2442 20.1151 12.9698 20.9767 13.4582C21.8384 13.9471 22.7218 14.172 22.7831 14.1913C22.8444 14.2106 22.8884 14.2343 22.8399 14.3307H22.8394ZM24.2935 11.7844C23.9702 12.5353 23.6815 13.0084 23.6219 13.1201C23.526 13.299 23.2858 13.2417 23.2858 13.2417C23.0121 13.2308 20.8848 12.8003 20.897 11.2881C20.9087 9.81455 23.2512 8.37113 24.1692 8.98805C25.0264 9.56344 24.6167 11.0345 24.2935 11.7844ZM101.628 28.3309C101.423 28.2281 101.196 28.1772 100.945 28.1772C100.695 28.1772 100.468 28.2286 100.263 28.3309C100.059 28.4337 99.8981 28.5731 99.7805 28.7506C99.6635 28.9275 99.6044 29.1203 99.6044 29.3279C99.6044 29.5356 99.6629 29.7318 99.7805 29.9078C99.8975 30.0833 100.059 30.2227 100.263 30.325C100.468 30.4278 100.695 30.4787 100.945 30.4787C101.196 30.4787 101.423 30.4273 101.628 30.325C101.832 30.2227 101.993 30.0833 102.11 29.9078C102.227 29.7323 102.286 29.539 102.286 29.3279C102.286 29.1169 102.228 28.9275 102.11 28.7506C101.993 28.5736 101.832 28.4337 101.628 28.3309ZM101.868 29.8045C101.779 29.9449 101.654 30.0551 101.494 30.1357C101.334 30.2157 101.151 30.2558 100.945 30.2558C100.74 30.2558 100.556 30.2157 100.396 30.1357C100.236 30.0556 100.112 29.9454 100.023 29.8045C99.9343 29.6641 99.8897 29.5049 99.8897 29.3279C99.8897 29.151 99.9343 28.9963 100.023 28.8559C100.112 28.7155 100.237 28.6052 100.399 28.5247C100.56 28.4441 100.742 28.4045 100.945 28.4045C101.148 28.4045 101.33 28.4446 101.492 28.5247C101.654 28.6047 101.779 28.715 101.868 28.8559C101.956 28.9963 102.001 29.1539 102.001 29.3279C102.001 29.5019 101.956 29.6641 101.868 29.8045Z" fill="#434343"/>
<path d="M101.449 29.309C101.487 29.2542 101.506 29.1929 101.506 29.1257C101.506 29.0328 101.472 28.9552 101.404 28.8919C101.336 28.8287 101.245 28.7971 101.131 28.7971H100.451V29.8383H100.75V29.4588H100.978L101.254 29.8383H101.596L101.287 29.4336C101.357 29.4054 101.411 29.3639 101.449 29.309ZM101.164 29.1993C101.141 29.2176 101.111 29.2265 101.073 29.2265H100.75V29.0244H101.073C101.111 29.0244 101.141 29.0338 101.164 29.0516C101.186 29.0698 101.197 29.0946 101.197 29.1252C101.197 29.1558 101.186 29.1805 101.164 29.1988V29.1993Z" fill="#F40009"/>
<path d="M101.449 29.309C101.487 29.2542 101.506 29.1929 101.506 29.1257C101.506 29.0328 101.472 28.9552 101.404 28.8919C101.336 28.8287 101.245 28.7971 101.131 28.7971H100.451V29.8383H100.75V29.4588H100.978L101.254 29.8383H101.596L101.287 29.4336C101.357 29.4054 101.411 29.3639 101.449 29.309ZM101.164 29.1993C101.141 29.2176 101.111 29.2265 101.073 29.2265H100.75V29.0244H101.073C101.111 29.0244 101.141 29.0338 101.164 29.0516C101.186 29.0698 101.197 29.0946 101.197 29.1252C101.197 29.1558 101.186 29.1805 101.164 29.1988V29.1993Z" fill="#434343"/>
</svg>
