<svg width="112" height="42" viewBox="0 0 112 42" fill="none" xmlns="http://www.w3.org/2000/svg">
<path d="M56.167 4.47528C56.9265 4.50682 57.6519 4.76447 58.2264 5.20674C59.0094 5.86506 59.2147 6.96278 58.8441 7.84107C57.4035 10.4749 53.9775 12.2341 51.6364 12.8161C50.2358 13.1087 48.4651 13.1087 47.1881 12.6698C46.5698 12.999 46.0483 14.0628 45.2933 13.6207C44.2007 12.8627 45.1465 11.6765 44.5158 10.8348C44.3857 10.6614 44.058 10.6487 43.8933 10.3652C43.028 8.68225 44.0992 7.0725 45.2933 5.79244C47.2842 3.81961 52.9958 1.62151 56.167 4.47528ZM49.5358 5.79191C48.4234 5.97478 47.1672 6.40465 46.4881 7.10908C45.8084 7.81298 45.3763 8.49939 45.7881 9.23085C47.2298 8.27995 47.9299 6.96278 49.5363 6.15817C49.5357 6.01135 49.7828 5.90163 49.5358 5.79191ZM56.25 6.15817C53.4076 5.93821 51.2658 7.84107 49.2475 9.66973C49.124 9.96232 48.3828 10.2915 48.9593 10.6206C51.6781 10.8401 54.2729 10.1457 56.25 8.53543C56.827 8.05998 57.2376 7.43823 56.9506 6.77939C56.827 6.5239 56.5364 6.26789 56.25 6.15817ZM80.879 17.0596C82.1973 19.9134 83.3091 24.4124 80.879 27.1565C80.2202 27.8148 79.0673 28.4217 78.3261 27.9245C75.6072 25.9861 74.4549 23.2055 72.766 20.7175C72.519 20.6078 72.519 20.9009 72.3954 21.0106C71.7778 23.5347 72.9307 26.8273 70.9954 28.8023C70.2542 28.912 69.5608 28.5733 69.3066 27.9245C68.3589 25.3273 69.3465 22.6198 69.5936 20.0226C70.1707 18.7054 70.4177 17.1694 71.6948 16.1813C73.7543 16.9128 74.7425 18.962 75.936 20.462C76.8019 21.5958 77.5013 22.8764 78.4896 23.9004C79.3543 23.5713 78.9288 22.5673 78.9019 21.9615C78.5713 19.5837 77.8302 17.3888 77.1296 15.1207C77.0896 14.5356 76.719 13.5476 77.4178 13.1818C79.2737 13.9138 80.0549 15.6327 80.879 17.0596ZM68.4407 16.1813C68.4407 16.7305 67.9465 17.4164 67.5336 17.4985C63.58 18.0471 59.1729 17.718 55.4664 18.8151C55.3429 19.2175 55.8782 19.2906 56.1664 19.4003C59.337 19.8392 62.6741 19.9489 65.7636 20.6443C67.3969 21.0127 67.9883 22.7301 68.1118 24.1564C68.1876 25.2812 67.7007 26.6439 66.4642 27.4125C63.4171 29.132 58.7629 29.0583 55.6729 27.4862C54.4919 26.8978 53.3664 25.9501 53.284 24.7792C53.2912 23.8495 53.7376 23.1175 54.4788 22.7672C57.4447 21.706 61.11 22.2923 63.6642 23.6449C63.8277 24.3769 62.9361 24.3372 62.5094 24.5964C59.667 26.0598 57.5258 22.9511 54.8899 24.0838C54.5193 24.3032 54.2514 24.9155 54.684 25.1084C57.9376 26.389 61.5624 25.4741 64.7747 24.6695C65.1453 24.5598 65.5989 24.2306 65.6395 23.9015C65.5159 22.7306 64.0336 22.4751 63.0859 22.146C60.2853 21.5242 57.1964 21.5242 54.1893 21.2682C53.6128 21.1585 52.8782 20.8018 52.707 20.3904C52.3775 19.5127 52.3775 18.3052 53.1187 17.5738C56.9488 14.5737 62.7559 14.8303 67.6159 15.6349C67.9459 15.7425 68.3165 15.8522 68.4407 16.1813ZM50.4422 17.5717C50.8128 21.0832 51.0187 24.3398 50.9364 28.0342C50.854 28.5092 50.2363 28.6194 49.8246 28.8023C49.1658 28.912 48.3142 28.7874 48.0534 28.4731C47.1063 27.1189 47.4357 25.2907 47.3534 23.6444C47.4769 21.0477 47.4357 18.2305 48.2599 15.8156C48.4174 15.4647 48.8775 15.1573 49.2481 15.3762C50.2364 15.8156 50.4011 16.6939 50.4422 17.5717ZM96.2022 17.0596C96.4003 17.3554 96.6074 17.8123 96.2022 18.0105C94.3486 18.742 91.8368 18.4128 89.6944 18.6323C89.118 19.0712 88.6644 19.8026 88.8697 20.4615C89.0768 20.5712 89.2612 20.7382 89.4886 20.717C90.8056 20.7906 92.7833 20.1684 93.6492 21.2656C93.8605 21.5921 93.6206 22.8112 93.0315 22.8387C91.4245 23.0227 88.782 22.6596 88.0056 23.0227C87.0174 23.6078 87.0991 24.7416 86.7285 25.657C87.4291 26.0593 88.1625 25.6474 88.9932 25.5467C90.5186 25.3273 92.2074 24.925 93.7304 25.2176C94.0186 25.693 94.431 26.2056 94.1421 26.7908C91.5456 28.6199 88.1966 30.4947 84.6285 29.1685C83.2894 28.6353 82.6926 26.8273 83.1461 25.2918C83.4338 24.1941 84.7103 23.1334 83.9285 21.9626C83.805 21.45 84.135 21.0117 84.6291 20.9019C85.9879 20.9019 85.6991 19.4019 86.3997 18.7065C85.6173 17.9385 83.6409 17.975 83.8467 16.4384C84.7944 15.9995 85.948 16.1458 87.0173 15.9995C89.4474 15.5601 92.1656 15.3041 94.6386 15.5601C95.131 15.6481 95.7904 16.511 96.2022 17.0596ZM37.3856 8.71883C41.1864 11.4783 46.1175 16.1819 45.4998 21.5958C44.758 25.8764 39.6509 29.0954 35.3262 30.12C31.125 31.2172 25.8531 31.1075 21.569 30.2297C21.2807 30.9251 20.9925 31.7658 20.0866 32.0589C19.5101 32.2418 18.7683 32.132 18.3154 31.8029C17.0389 30.7417 18.0683 28.6931 16.2148 28.0353C12.59 26.6816 8.67705 24.0107 6.8241 20.7185C6.57703 20.0602 6.86527 19.4019 7.31822 18.8899C10.1606 16.8778 13.7436 16.0732 17.3272 15.4509C17.533 15.5241 17.4507 15.2681 17.6154 15.1949C17.8213 13 17.9036 10.768 18.686 8.79251C18.8644 8.51529 19.3036 8.42677 19.5925 8.60964C21.8578 10.1457 20.7866 13.0366 21.7754 15.1213C26.1002 15.3041 30.425 15.487 33.8432 17.6459C34.9968 18.487 35.2778 20.0936 34.9138 21.0117C34.5504 21.9281 33.3491 22.5848 32.2367 22.6569C31.495 22.6569 30.0949 22.7211 30.1773 22.2186C30.2596 21.7156 32.6968 20.8924 31.9485 20.206C30.8725 19.2196 25.4891 18.6328 22.1526 18.2671C21.7408 18.1939 21.3631 18.3037 21.3631 18.706C21.2807 21.4861 21.0337 24.5587 21.569 27.2302C21.6101 27.4136 21.8572 27.633 22.0637 27.6685C27.9532 28.5102 34.1726 28.0342 38.7856 25.0347C40.9274 23.4992 41.628 21.3392 41.2568 18.962C39.4033 12.3406 31.6191 8.35256 25.2349 5.79191C19.016 3.37755 12.1371 2.13353 4.76466 2.46322C3.59082 2.53955 1.73071 2.89945 1.71698 3.26836C1.70326 3.63727 3.82416 3.52119 3.56994 4.21926C3.31631 4.9168 1.1608 4.50284 0.522258 4.32898C-0.116281 4.15513 -0.0542171 3.34098 0.11049 2.82895C1.71698 0.304872 6.19988 0.100804 8.2247 0.0122865C19.4272 -0.244256 30.2602 3.54505 37.3856 8.71883ZM17.2036 18.5231C14.3612 18.5597 11.3547 18.8157 8.71882 19.6934C8.18353 19.8763 7.5241 20.3883 7.93587 21.0106C9.00646 22.2907 10.5378 23.3417 11.9724 24.0833C13.407 24.8238 15.3089 25.7662 17.0389 25.9861C17.4507 23.6078 17.4507 21.2666 17.4095 18.8157C17.2442 18.7425 17.4089 18.5962 17.2036 18.5231ZM102.338 15.1939C102.215 18.3763 98.8775 20.3523 98.8775 23.5347C99.001 23.6444 99.0845 23.7907 99.2481 23.7186C101.926 21.1208 104.562 17.4259 108.475 16.3287C109.506 16.2556 110.437 17.0512 110.823 17.6459C112.182 20.0602 111.854 23.4626 109.959 25.6575C108.003 27.8122 104.603 29.9742 100.733 29.608C99.1275 33.12 98.0133 36.815 97.3957 40.6562C97.0663 41.4243 96.2845 40.7294 95.7904 40.5831C92.4545 38.2419 95.1936 32.044 95.4198 31.2532C95.646 30.4645 96.5387 28.604 97.1916 27.0462C95.6263 24.5593 96.6145 21.5587 97.891 19.254C98.8792 17.7174 100.24 16.1808 101.846 15.0105C102.05 15.011 102.215 15.0476 102.338 15.1939ZM108.971 19.1448C108.476 19.0717 108.27 19.6574 107.859 19.7671C105.965 21.6694 104.069 23.5718 103.122 25.8399C104.399 25.9861 105.469 25.2547 106.582 24.8524C108.476 23.7912 109.671 22.0362 109.548 20.0237C109.465 19.6934 109.135 19.4374 108.971 19.1448Z" fill="#F40009"/>
<path d="M56.167 4.47528C56.9265 4.50682 57.6519 4.76447 58.2264 5.20674C59.0094 5.86506 59.2147 6.96278 58.8441 7.84107C57.4035 10.4749 53.9775 12.2341 51.6364 12.8161C50.2358 13.1087 48.4651 13.1087 47.1881 12.6698C46.5698 12.999 46.0483 14.0628 45.2933 13.6207C44.2007 12.8627 45.1465 11.6765 44.5158 10.8348C44.3857 10.6614 44.058 10.6487 43.8933 10.3652C43.028 8.68225 44.0992 7.0725 45.2933 5.79244C47.2842 3.81961 52.9958 1.62151 56.167 4.47528ZM49.5358 5.79191C48.4234 5.97478 47.1672 6.40465 46.4881 7.10908C45.8084 7.81298 45.3763 8.49939 45.7881 9.23085C47.2298 8.27995 47.9299 6.96278 49.5363 6.15817C49.5357 6.01135 49.7828 5.90163 49.5358 5.79191ZM56.25 6.15817C53.4076 5.93821 51.2658 7.84107 49.2475 9.66973C49.124 9.96232 48.3828 10.2915 48.9593 10.6206C51.6781 10.8401 54.2729 10.1457 56.25 8.53543C56.827 8.05998 57.2376 7.43823 56.9506 6.77939C56.827 6.5239 56.5364 6.26789 56.25 6.15817ZM80.879 17.0596C82.1973 19.9134 83.3091 24.4124 80.879 27.1565C80.2202 27.8148 79.0673 28.4217 78.3261 27.9245C75.6072 25.9861 74.4549 23.2055 72.766 20.7175C72.519 20.6078 72.519 20.9009 72.3954 21.0106C71.7778 23.5347 72.9307 26.8273 70.9954 28.8023C70.2542 28.912 69.5608 28.5733 69.3066 27.9245C68.3589 25.3273 69.3465 22.6198 69.5936 20.0226C70.1707 18.7054 70.4177 17.1694 71.6948 16.1813C73.7543 16.9128 74.7425 18.962 75.936 20.462C76.8019 21.5958 77.5013 22.8764 78.4896 23.9004C79.3543 23.5713 78.9288 22.5673 78.9019 21.9615C78.5713 19.5837 77.8302 17.3888 77.1296 15.1207C77.0896 14.5356 76.719 13.5476 77.4178 13.1818C79.2737 13.9138 80.0549 15.6327 80.879 17.0596ZM68.4407 16.1813C68.4407 16.7305 67.9465 17.4164 67.5336 17.4985C63.58 18.0471 59.1729 17.718 55.4664 18.8151C55.3429 19.2175 55.8782 19.2906 56.1664 19.4003C59.337 19.8392 62.6741 19.9489 65.7636 20.6443C67.3969 21.0127 67.9883 22.7301 68.1118 24.1564C68.1876 25.2812 67.7007 26.6439 66.4642 27.4125C63.4171 29.132 58.7629 29.0583 55.6729 27.4862C54.4919 26.8978 53.3664 25.9501 53.284 24.7792C53.2912 23.8495 53.7376 23.1175 54.4788 22.7672C57.4447 21.706 61.11 22.2923 63.6642 23.6449C63.8277 24.3769 62.9361 24.3372 62.5094 24.5964C59.667 26.0598 57.5258 22.9511 54.8899 24.0838C54.5193 24.3032 54.2514 24.9155 54.684 25.1084C57.9376 26.389 61.5624 25.4741 64.7747 24.6695C65.1453 24.5598 65.5989 24.2306 65.6395 23.9015C65.5159 22.7306 64.0336 22.4751 63.0859 22.146C60.2853 21.5242 57.1964 21.5242 54.1893 21.2682C53.6128 21.1585 52.8782 20.8018 52.707 20.3904C52.3775 19.5127 52.3775 18.3052 53.1187 17.5738C56.9488 14.5737 62.7559 14.8303 67.6159 15.6349C67.9459 15.7425 68.3165 15.8522 68.4407 16.1813ZM50.4422 17.5717C50.8128 21.0832 51.0187 24.3398 50.9364 28.0342C50.854 28.5092 50.2363 28.6194 49.8246 28.8023C49.1658 28.912 48.3142 28.7874 48.0534 28.4731C47.1063 27.1189 47.4357 25.2907 47.3534 23.6444C47.4769 21.0477 47.4357 18.2305 48.2599 15.8156C48.4174 15.4647 48.8775 15.1573 49.2481 15.3762C50.2364 15.8156 50.4011 16.6939 50.4422 17.5717ZM96.2022 17.0596C96.4003 17.3554 96.6074 17.8123 96.2022 18.0105C94.3486 18.742 91.8368 18.4128 89.6944 18.6323C89.118 19.0712 88.6644 19.8026 88.8697 20.4615C89.0768 20.5712 89.2612 20.7382 89.4886 20.717C90.8056 20.7906 92.7833 20.1684 93.6492 21.2656C93.8605 21.5921 93.6206 22.8112 93.0315 22.8387C91.4245 23.0227 88.782 22.6596 88.0056 23.0227C87.0174 23.6078 87.0991 24.7416 86.7285 25.657C87.4291 26.0593 88.1625 25.6474 88.9932 25.5467C90.5186 25.3273 92.2074 24.925 93.7304 25.2176C94.0186 25.693 94.431 26.2056 94.1421 26.7908C91.5456 28.6199 88.1966 30.4947 84.6285 29.1685C83.2894 28.6353 82.6926 26.8273 83.1461 25.2918C83.4338 24.1941 84.7103 23.1334 83.9285 21.9626C83.805 21.45 84.135 21.0117 84.6291 20.9019C85.9879 20.9019 85.6991 19.4019 86.3997 18.7065C85.6173 17.9385 83.6409 17.975 83.8467 16.4384C84.7944 15.9995 85.948 16.1458 87.0173 15.9995C89.4474 15.5601 92.1656 15.3041 94.6386 15.5601C95.131 15.6481 95.7904 16.511 96.2022 17.0596ZM37.3856 8.71883C41.1864 11.4783 46.1175 16.1819 45.4998 21.5958C44.758 25.8764 39.6509 29.0954 35.3262 30.12C31.125 31.2172 25.8531 31.1075 21.569 30.2297C21.2807 30.9251 20.9925 31.7658 20.0866 32.0589C19.5101 32.2418 18.7683 32.132 18.3154 31.8029C17.0389 30.7417 18.0683 28.6931 16.2148 28.0353C12.59 26.6816 8.67705 24.0107 6.8241 20.7185C6.57703 20.0602 6.86527 19.4019 7.31822 18.8899C10.1606 16.8778 13.7436 16.0732 17.3272 15.4509C17.533 15.5241 17.4507 15.2681 17.6154 15.1949C17.8213 13 17.9036 10.768 18.686 8.79251C18.8644 8.51529 19.3036 8.42677 19.5925 8.60964C21.8578 10.1457 20.7866 13.0366 21.7754 15.1213C26.1002 15.3041 30.425 15.487 33.8432 17.6459C34.9968 18.487 35.2778 20.0936 34.9138 21.0117C34.5504 21.9281 33.3491 22.5848 32.2367 22.6569C31.495 22.6569 30.0949 22.7211 30.1773 22.2186C30.2596 21.7156 32.6968 20.8924 31.9485 20.206C30.8725 19.2196 25.4891 18.6328 22.1526 18.2671C21.7408 18.1939 21.3631 18.3037 21.3631 18.706C21.2807 21.4861 21.0337 24.5587 21.569 27.2302C21.6101 27.4136 21.8572 27.633 22.0637 27.6685C27.9532 28.5102 34.1726 28.0342 38.7856 25.0347C40.9274 23.4992 41.628 21.3392 41.2568 18.962C39.4033 12.3406 31.6191 8.35256 25.2349 5.79191C19.016 3.37755 12.1371 2.13353 4.76466 2.46322C3.59082 2.53955 1.73071 2.89945 1.71698 3.26836C1.70326 3.63727 3.82416 3.52119 3.56994 4.21926C3.31631 4.9168 1.1608 4.50284 0.522258 4.32898C-0.116281 4.15513 -0.0542171 3.34098 0.11049 2.82895C1.71698 0.304872 6.19988 0.100804 8.2247 0.0122865C19.4272 -0.244256 30.2602 3.54505 37.3856 8.71883ZM17.2036 18.5231C14.3612 18.5597 11.3547 18.8157 8.71882 19.6934C8.18353 19.8763 7.5241 20.3883 7.93587 21.0106C9.00646 22.2907 10.5378 23.3417 11.9724 24.0833C13.407 24.8238 15.3089 25.7662 17.0389 25.9861C17.4507 23.6078 17.4507 21.2666 17.4095 18.8157C17.2442 18.7425 17.4089 18.5962 17.2036 18.5231ZM102.338 15.1939C102.215 18.3763 98.8775 20.3523 98.8775 23.5347C99.001 23.6444 99.0845 23.7907 99.2481 23.7186C101.926 21.1208 104.562 17.4259 108.475 16.3287C109.506 16.2556 110.437 17.0512 110.823 17.6459C112.182 20.0602 111.854 23.4626 109.959 25.6575C108.003 27.8122 104.603 29.9742 100.733 29.608C99.1275 33.12 98.0133 36.815 97.3957 40.6562C97.0663 41.4243 96.2845 40.7294 95.7904 40.5831C92.4545 38.2419 95.1936 32.044 95.4198 31.2532C95.646 30.4645 96.5387 28.604 97.1916 27.0462C95.6263 24.5593 96.6145 21.5587 97.891 19.254C98.8792 17.7174 100.24 16.1808 101.846 15.0105C102.05 15.011 102.215 15.0476 102.338 15.1939ZM108.971 19.1448C108.476 19.0717 108.27 19.6574 107.859 19.7671C105.965 21.6694 104.069 23.5718 103.122 25.8399C104.399 25.9861 105.469 25.2547 106.582 24.8524C108.476 23.7912 109.671 22.0362 109.548 20.0237C109.465 19.6934 109.135 19.4374 108.971 19.1448Z" fill="#434343"/>
</svg>
