<svg width="116" height="20" viewBox="0 0 116 20" fill="none" xmlns="http://www.w3.org/2000/svg">
<path d="M9.00964 3.11023C7.66089 3.11023 7.25626 3.63658 7.25626 4.80889V6.74681H10.8709L10.5202 9.90489H7.25626V19.4509H2.9133V9.90489H0V6.77073H2.9133V4.88067C2.9133 1.67474 4.36994 0 8.38921 0C9.22543 0 10.0886 0.0478497 10.9249 0.143549V3.11023" fill="#F40009"/>
<path d="M9.00964 3.11023C7.66089 3.11023 7.25626 3.63658 7.25626 4.80889V6.74681H10.8709L10.5202 9.90489H7.25626V19.4509H2.9133V9.90489H0V6.77073H2.9133V4.88067C2.9133 1.67474 4.36994 0 8.38921 0C9.22543 0 10.0886 0.0478497 10.9249 0.143549V3.11023" fill="#434343"/>
<path d="M11.1677 12.7041C11.1677 9.16322 13.0559 6.48364 17.0482 6.48364C19.2062 6.48364 20.528 7.46456 21.1754 8.70865V6.77074H25.3295V19.4748H21.1484V17.5608C20.5549 18.781 19.1792 19.738 17.0212 19.738C13.0559 19.738 11.1407 17.0823 11.1407 13.5175M15.5106 13.5654C15.5106 15.4555 16.2929 16.7235 18.316 16.7235C20.0964 16.7235 20.9865 15.5751 20.9865 13.7568V12.4649C20.9865 10.6466 20.0694 9.49817 18.316 9.49817C16.2929 9.49817 15.5106 10.7423 15.5106 12.6563V13.5654Z" fill="#F40009"/>
<path d="M11.1677 12.7041C11.1677 9.16322 13.0559 6.48364 17.0482 6.48364C19.2062 6.48364 20.528 7.46456 21.1754 8.70865V6.77074H25.3295V19.4748H21.1484V17.5608C20.5549 18.781 19.1792 19.738 17.0212 19.738C13.0559 19.738 11.1407 17.0823 11.1407 13.5175M15.5106 13.5654C15.5106 15.4555 16.2929 16.7235 18.316 16.7235C20.0964 16.7235 20.9865 15.5751 20.9865 13.7568V12.4649C20.9865 10.6466 20.0694 9.49817 18.316 9.49817C16.2929 9.49817 15.5106 10.7423 15.5106 12.6563V13.5654Z" fill="#434343"/>
<path d="M34.3391 6.48364C36.0116 6.48364 37.6301 6.79467 38.4933 7.34494L37.5222 10.0724C36.632 9.68957 35.6339 9.49817 34.6359 9.49817C32.289 9.49817 31.264 10.6944 31.264 12.752V13.4936C31.264 15.5512 32.289 16.7474 34.6359 16.7474C35.6339 16.7474 36.632 16.5321 37.5222 16.1493L38.4933 18.8767C37.6301 19.4031 36.0386 19.738 34.3391 19.738C29.2409 19.738 26.948 17.3216 26.948 13.4218V12.8237C26.948 8.92398 29.2409 6.48364 34.3391 6.48364Z" fill="#F40009"/>
<path d="M34.3391 6.48364C36.0116 6.48364 37.6301 6.79467 38.4933 7.34494L37.5222 10.0724C36.632 9.68957 35.6339 9.49817 34.6359 9.49817C32.289 9.49817 31.264 10.6944 31.264 12.752V13.4936C31.264 15.5512 32.289 16.7474 34.6359 16.7474C35.6339 16.7474 36.632 16.5321 37.5222 16.1493L38.4933 18.8767C37.6301 19.4031 36.0386 19.738 34.3391 19.738C29.2409 19.738 26.948 17.3216 26.948 13.4218V12.8237C26.948 8.92398 29.2409 6.48364 34.3391 6.48364Z" fill="#434343"/>
<path d="M39.0598 13.5893V12.4649C39.0598 8.8522 41.3797 6.48364 46.1003 6.48364C50.5511 6.48364 52.5203 8.87613 52.5203 12.417V14.4506H43.4028C43.4837 16.1971 44.3739 16.9627 46.7746 16.9627C48.3392 16.9627 49.9037 16.6996 51.3874 16.1971L52.1696 18.8289C51.0367 19.3552 48.6899 19.7619 46.6128 19.7619C41.1099 19.738 39.0598 17.3216 39.0598 13.5893ZM43.4028 11.9146H48.6359V11.6036C48.6359 10.2159 48.0155 9.11538 46.1003 9.11538C44.1581 9.11538 43.4028 10.2159 43.4028 11.9146Z" fill="#F40009"/>
<path d="M39.0598 13.5893V12.4649C39.0598 8.8522 41.3797 6.48364 46.1003 6.48364C50.5511 6.48364 52.5203 8.87613 52.5203 12.417V14.4506H43.4028C43.4837 16.1971 44.3739 16.9627 46.7746 16.9627C48.3392 16.9627 49.9037 16.6996 51.3874 16.1971L52.1696 18.8289C51.0367 19.3552 48.6899 19.7619 46.6128 19.7619C41.1099 19.738 39.0598 17.3216 39.0598 13.5893ZM43.4028 11.9146H48.6359V11.6036C48.6359 10.2159 48.0155 9.11538 46.1003 9.11538C44.1581 9.11538 43.4028 10.2159 43.4028 11.9146Z" fill="#434343"/>
<path d="M68.5973 13.5175C68.5973 17.0584 66.6821 19.738 62.6898 19.738C60.5318 19.738 59.0212 18.781 58.4278 17.5608V19.4748H54.3276V0.382799L58.6705 0.0478516V8.54117C59.291 7.4167 60.6937 6.50756 62.7168 6.50756C66.6821 6.50756 68.6243 9.16322 68.6243 12.728M64.2544 12.6323C64.2544 10.838 63.4721 9.49817 61.395 9.49817C59.6147 9.49817 58.6705 10.6226 58.6705 12.4409V13.7807C58.6705 15.599 59.6416 16.7235 61.395 16.7235C63.4721 16.7235 64.2544 15.3837 64.2544 13.5893V12.6323Z" fill="#F40009"/>
<path d="M68.5973 13.5175C68.5973 17.0584 66.6821 19.738 62.6898 19.738C60.5318 19.738 59.0212 18.781 58.4278 17.5608V19.4748H54.3276V0.382799L58.6705 0.0478516V8.54117C59.291 7.4167 60.6937 6.50756 62.7168 6.50756C66.6821 6.50756 68.6243 9.16322 68.6243 12.728M64.2544 12.6323C64.2544 10.838 63.4721 9.49817 61.395 9.49817C59.6147 9.49817 58.6705 10.6226 58.6705 12.4409V13.7807C58.6705 15.599 59.6416 16.7235 61.395 16.7235C63.4721 16.7235 64.2544 15.3837 64.2544 13.5893V12.6323Z" fill="#434343"/>
<path d="M70.027 13.4218V12.7759C70.027 9.11538 72.3738 6.48364 77.1484 6.48364C81.9229 6.48364 84.2698 9.11538 84.2698 12.7759V13.4218C84.2698 17.0823 81.9229 19.7141 77.1484 19.7141C72.3738 19.7141 70.027 17.1063 70.027 13.4218ZM79.9538 12.5127C79.9538 10.838 79.1715 9.49817 77.1484 9.49817C75.1252 9.49817 74.343 10.838 74.343 12.5127V13.7089C74.343 15.3837 75.1252 16.7235 77.1484 16.7235C79.1715 16.7235 79.9538 15.3837 79.9538 13.7089V12.5127Z" fill="#F40009"/>
<path d="M70.027 13.4218V12.7759C70.027 9.11538 72.3738 6.48364 77.1484 6.48364C81.9229 6.48364 84.2698 9.11538 84.2698 12.7759V13.4218C84.2698 17.0823 81.9229 19.7141 77.1484 19.7141C72.3738 19.7141 70.027 17.1063 70.027 13.4218ZM79.9538 12.5127C79.9538 10.838 79.1715 9.49817 77.1484 9.49817C75.1252 9.49817 74.343 10.838 74.343 12.5127V13.7089C74.343 15.3837 75.1252 16.7235 77.1484 16.7235C79.1715 16.7235 79.9538 15.3837 79.9538 13.7089V12.5127Z" fill="#434343"/>
<path d="M85.7534 13.4218V12.7759C85.7534 9.11538 88.1002 6.48364 92.8748 6.48364C97.6494 6.48364 99.9962 9.11538 99.9962 12.7759V13.4218C99.9962 17.0823 97.6494 19.7141 92.8748 19.7141C88.1002 19.7141 85.7534 17.1063 85.7534 13.4218ZM95.6802 12.5127C95.6802 10.838 94.8979 9.49817 92.8748 9.49817C90.8517 9.49817 90.0694 10.838 90.0694 12.5127V13.7089C90.0694 15.3837 90.8517 16.7235 92.8748 16.7235C94.8979 16.7235 95.6802 15.3837 95.6802 13.7089V12.5127Z" fill="#F40009"/>
<path d="M85.7534 13.4218V12.7759C85.7534 9.11538 88.1002 6.48364 92.8748 6.48364C97.6494 6.48364 99.9962 9.11538 99.9962 12.7759V13.4218C99.9962 17.0823 97.6494 19.7141 92.8748 19.7141C88.1002 19.7141 85.7534 17.1063 85.7534 13.4218ZM95.6802 12.5127C95.6802 10.838 94.8979 9.49817 92.8748 9.49817C90.8517 9.49817 90.0694 10.838 90.0694 12.5127V13.7089C90.0694 15.3837 90.8517 16.7235 92.8748 16.7235C94.8979 16.7235 95.6802 15.3837 95.6802 13.7089V12.5127Z" fill="#434343"/>
<path d="M105.958 12.8237L110.247 6.74681H114.832L110.355 13.039L115.021 19.4748H110.408L105.958 13.2544V19.4748H101.642V0.382798L105.958 0.0239258" fill="#F40009"/>
<path d="M105.958 12.8237L110.247 6.74681H114.832L110.355 13.039L115.021 19.4748H110.408L105.958 13.2544V19.4748H101.642V0.382798L105.958 0.0239258" fill="#434343"/>
</svg>
