<svg width="23" height="32" viewBox="0 0 23 32" fill="none" xmlns="http://www.w3.org/2000/svg">
<path fill-rule="evenodd" clip-rule="evenodd" d="M2 11.4267C2 16.6363 6.21467 20.8533 11.4062 20.8533C16.5976 20.8533 20.8123 16.6363 20.8123 11.4267C20.8123 6.21707 16.5976 2 11.4062 2C6.21467 2 2 6.21707 2 11.4267ZM0 11.4267C-2.55344e-07 17.3083 4.43578 22.152 10.1388 22.7836V28.0729H12.1388V22.8302C18.0968 22.4518 22.8123 17.4909 22.8123 11.4267C22.8123 5.1159 17.7056 0 11.4062 0C5.10671 0 2.73973e-07 5.11589 0 11.4267ZM5.32112 31.7188H17.2704V29.7188H5.32112V31.7188Z" fill="black"/>
</svg>
