<svg width="116" height="22" viewBox="0 0 116 22" fill="none" xmlns="http://www.w3.org/2000/svg">
<mask id="mask0_5_84" style="mask-type:alpha" maskUnits="userSpaceOnUse" x="0" y="0" width="116" height="22">
<path d="M115.021 9.85255V8.05845H112.509V5.26931L112.425 5.2924L110.065 5.93267L110.019 5.9452V8.05855H106.295V6.88123C106.295 6.33304 106.433 5.91353 106.705 5.63375C106.976 5.35734 107.363 5.21681 107.856 5.21681C108.211 5.21681 108.578 5.29092 108.948 5.43707L109.04 5.47378V3.58435L108.997 3.57014C108.652 3.46021 108.183 3.40485 107.602 3.40485C106.869 3.40485 106.203 3.54626 105.623 3.82653C105.042 4.10719 104.585 4.50785 104.265 5.01727C103.946 5.52609 103.784 6.11376 103.784 6.76409V8.05845H102.035V9.85255H103.784V17.4108H106.295V9.85255H110.019V14.6557C110.019 16.6338 111.071 17.6363 113.146 17.6363C113.486 17.6363 113.845 17.6008 114.212 17.5314C114.585 17.4602 114.839 17.389 114.988 17.3131L115.021 17.2957V15.485L114.919 15.5449C114.783 15.6254 114.613 15.6913 114.414 15.7402C114.214 15.79 114.047 15.815 113.918 15.815C113.432 15.815 113.073 15.6989 112.849 15.4696C112.624 15.2383 112.509 14.8338 112.509 14.2679V9.85255H115.021ZM96.4273 15.8153C95.516 15.8153 94.7974 15.5473 94.291 15.0193C93.7815 14.4887 93.5234 13.7322 93.5234 12.771C93.5234 11.7793 93.7815 11.0031 94.2912 10.4631C94.798 9.92666 95.5096 9.65439 96.4069 9.65439C97.2775 9.65439 97.9706 9.91442 98.4671 10.4277C98.966 10.9436 99.2192 11.7136 99.2192 12.7168C99.2192 13.7324 98.9811 14.5125 98.5116 15.0343C98.0453 15.5522 97.3441 15.8153 96.4273 15.8153ZM96.5389 7.83315C94.8002 7.83315 93.4191 8.28503 92.4344 9.17626C91.4504 10.0676 90.9515 11.3011 90.9515 12.8427C90.9515 14.307 91.4385 15.4848 92.3992 16.3429C93.3598 17.2012 94.6672 17.6361 96.2847 17.6361C97.9702 17.6361 99.3237 17.1779 100.308 16.2743C101.292 15.3717 101.791 14.1499 101.791 12.6443C101.791 11.1571 101.323 9.97048 100.4 9.11813C99.476 8.26539 98.1769 7.83315 96.5389 7.83315ZM86.903 7.83315C85.7203 7.83315 84.7419 8.10148 83.9945 8.63053C83.2426 9.16274 82.8612 9.86074 82.8612 10.7054C82.8612 11.1444 82.9435 11.5344 83.1055 11.8652C83.2685 12.1971 83.5208 12.4893 83.8559 12.7346C84.1885 12.9778 84.7019 13.2326 85.3821 13.4919C85.9541 13.7006 86.3805 13.8771 86.6515 14.0163C86.9163 14.1527 87.1042 14.2897 87.2104 14.4233C87.3135 14.5539 87.3658 14.7327 87.3658 14.9534C87.3658 15.5817 86.8353 15.8875 85.7437 15.8875C85.3388 15.8875 84.8769 15.8125 84.371 15.6646C83.8686 15.519 83.3945 15.3058 82.9652 15.0324L82.861 14.9661V17.1103L82.8992 17.1261C83.2545 17.2715 83.7025 17.3942 84.2304 17.4907C84.7574 17.5873 85.2362 17.6365 85.6521 17.6365C86.9355 17.6365 87.9691 17.3668 88.7233 16.8346C89.4822 16.2988 89.8668 15.5843 89.8668 14.7104C89.8668 14.08 89.6598 13.5394 89.2517 13.1034C88.8463 12.671 88.1428 12.274 87.1615 11.9231C86.3798 11.6448 85.8789 11.4138 85.6723 11.2364C85.4732 11.0651 85.372 10.8228 85.372 10.516C85.372 10.244 85.4969 10.0261 85.7531 9.84969C86.0114 9.67235 86.3709 9.58215 86.8217 9.58215C87.2401 9.58215 87.6681 9.64077 88.0938 9.75564C88.5192 9.87051 88.8928 10.0244 89.2047 10.2126L89.3073 10.2747V8.24082L89.2679 8.22582C88.9802 8.11638 88.6007 8.02273 88.1399 7.94674C87.6811 7.87124 87.265 7.83315 86.903 7.83315ZM76.3153 15.8153C75.4041 15.8153 74.6853 15.5473 74.1791 15.0193C73.6695 14.4887 73.4118 13.7324 73.4118 12.771C73.4118 11.7793 73.6698 11.0031 74.1796 10.4631C74.6859 9.92666 75.3974 9.65439 76.2951 9.65439C77.1655 9.65439 77.8585 9.91442 78.3551 10.4277C78.8541 10.9436 79.1073 11.7136 79.1073 12.7168C79.1073 13.7324 78.8691 14.5125 78.3995 15.0343C77.9332 15.5522 77.2323 15.8153 76.3153 15.8153ZM76.4272 7.83315C74.688 7.83315 73.3068 8.28503 72.3227 9.17626C71.3387 10.0676 70.8394 11.3011 70.8394 12.8427C70.8394 14.3076 71.3268 15.4848 72.2874 16.3429C73.2481 17.2012 74.5554 17.6361 76.1728 17.6361C77.8581 17.6361 79.212 17.1779 80.1962 16.2743C81.1802 15.3717 81.679 14.1499 81.679 12.6443C81.679 11.1571 81.211 9.97048 80.2876 9.11813C79.3637 8.26539 78.0648 7.83315 76.4272 7.83315ZM67.0279 9.67807V8.05845H64.5475V17.4106H67.0279V12.6266C67.0279 11.8131 67.2358 11.1448 67.6462 10.6401C68.0513 10.1413 68.5912 9.88857 69.2503 9.88857C69.4737 9.88857 69.7245 9.92123 69.9961 9.98587C70.2649 10.0501 70.4597 10.1199 70.5745 10.1933L70.6787 10.2603V8.04246L70.6386 8.02717C70.4076 7.94013 70.0808 7.89621 69.6673 7.89621C69.044 7.89621 68.4862 8.07385 68.0084 8.42359C67.5891 8.73099 67.286 9.15248 67.0542 9.67807H67.0279ZM60.1056 7.83315C58.9677 7.83315 57.9528 8.04957 57.0894 8.47619C56.2243 8.90379 55.5553 9.51426 55.1001 10.2905C54.6469 11.0649 54.4168 11.9694 54.4168 12.9782C54.4168 13.8618 54.6399 14.6727 55.0809 15.3874C55.522 16.1033 56.1465 16.6633 56.9369 17.0517C57.7262 17.4397 58.6385 17.6364 59.6486 17.6364C60.8273 17.6364 61.8337 17.4273 62.6406 17.0151L62.6732 16.9985V14.9831L62.569 15.0506C62.2035 15.2868 61.795 15.4752 61.3555 15.611C60.9171 15.7467 60.5174 15.8153 60.167 15.8153C59.1937 15.8153 58.4124 15.5452 57.8453 15.0127C57.2769 14.4795 56.9887 13.7308 56.9887 12.7886C56.9887 11.8406 57.2893 11.0726 57.8815 10.5059C58.472 9.94097 59.2548 9.65439 60.2079 9.65439C61.0231 9.65439 61.8176 9.89923 62.5692 10.3828L62.6732 10.4498V8.32618L62.6396 8.30941C62.3568 8.16898 61.971 8.05302 61.4921 7.96509C61.0152 7.87736 60.5488 7.83315 60.1056 7.83315ZM52.7085 8.05855H50.2282V17.4106H52.7085V8.05855ZM51.4937 4.07452C51.0855 4.07452 50.7294 4.19778 50.4369 4.44203C50.1432 4.68697 49.9942 4.99536 49.9942 5.35931C49.9942 5.71754 50.1414 6.0203 50.4324 6.25873C50.7214 6.49646 51.0786 6.61695 51.4938 6.61695C51.909 6.61695 52.2675 6.49646 52.56 6.25912C52.8544 6.0203 53.0037 5.71763 53.0037 5.35931C53.0037 5.00809 52.8584 4.70285 52.5721 4.4519C52.2861 4.20143 51.9231 4.07452 51.4937 4.07452ZM45.3051 7.36854V17.4106H47.8364V4.36081H44.333L39.8799 14.0538L35.5584 4.36081H31.9123V17.4105H34.2911V7.36755H34.3727L38.9361 17.4106H40.7313L45.2234 7.36854H45.3051Z" fill="#434343"/>
<path d="M11.6683 10.3489H0V0H11.6683V10.3489Z" fill="#434343"/>
<path d="M24.5514 10.3489H12.8833V0H24.5514V10.3489Z" fill="#434343"/>
<path d="M11.668 21.7794H0V11.4305H11.668V21.7794Z" fill="#434343"/>
<path d="M24.5514 21.7794H12.8833V11.4305H24.5514V21.7794Z" fill="#434343"/>
</mask>
<g mask="url(#mask0_5_84)">
<rect x="-19.4535" y="-27.2454" width="137" height="85" fill="#434343"/>
</g>
</svg>
