<svg width="24" height="25" viewBox="0 0 24 25" fill="none" xmlns="http://www.w3.org/2000/svg">
<path fill-rule="evenodd" clip-rule="evenodd" d="M18.2727 18.1608C14.5795 21.8314 8.55561 21.8254 4.81798 18.1107C1.08034 14.3959 1.07432 8.40894 4.76754 4.73834C8.46075 1.06773 14.4846 1.07371 18.2222 4.78847C21.9599 8.50322 21.9659 14.4902 18.2727 18.1608ZM18.739 20.4179C14.2271 24.0044 7.60533 23.7007 3.39943 19.5205C-1.11336 15.0354 -1.13594 7.78594 3.34899 3.32847C7.83391 -1.129 15.128 -1.10655 19.6408 3.3786C23.9791 7.69035 24.1677 14.5568 20.1912 19.0414L23.9399 22.7672L22.5214 24.1771L18.739 20.4179Z" fill="black"/>
</svg>
