<svg width="111" height="17" viewBox="0 0 111 17" fill="none" xmlns="http://www.w3.org/2000/svg">
<path fill-rule="evenodd" clip-rule="evenodd" d="M109.944 14.8256C109.944 14.6854 109.874 14.5379 109.733 14.4675C109.591 14.3935 109.432 14.3862 109.273 14.3862H108.451V16.0473H108.681V15.2811H109.105L109.644 16.0473H109.918L109.348 15.2811C109.684 15.2728 109.944 15.1524 109.944 14.8256ZM109.034 15.1211H108.68V14.5337H109.219C109.453 14.5337 109.71 14.565 109.71 14.8219C109.711 15.1602 109.299 15.1211 109.034 15.1211ZM99.1822 6.79491L102.634 3.55042C102.834 3.31223 102.933 3.14545 102.933 3.00264C102.933 2.76445 102.701 2.66907 101.969 2.66907H101.098V0.620752H110.524V2.66907H109.286C107.856 2.66907 107.59 2.85931 105.594 5.07442L100.134 10.2656V13.4335C100.134 14.2439 100.598 14.529 101.929 14.529H103.991V16.5054H90.7877V14.529H92.8492C94.1789 14.529 94.6448 14.2439 94.6448 13.4335V10.2656L88.2135 4.00231C87.1508 2.90726 87.2976 2.66907 84.3386 2.66907V0.620752H96.2788V2.66907H95.4287C94.5637 2.66907 94.1972 2.81188 94.1972 3.0975C94.1972 3.33621 94.4631 3.52645 94.6294 3.71669L97.8833 6.83869C98.2699 7.19258 98.7417 7.23845 99.1822 6.79491ZM19.0695 0.620231H21.9498V6.33573H19.2898C19.0541 5.19325 18.2418 4.74867 17.5012 4.14929C16.165 3.06831 13.2711 2.1682 10.8372 2.1682C7.69589 2.1682 5.04475 3.0261 5.04475 4.2874C5.04475 7.78884 23.0101 5.00249 23.0101 11.6228C23.0101 15.0758 19.1619 17.0047 12.251 17.0047C9.8586 17.0047 6.23829 16.3511 4.10222 15.3525C3.43263 15.0122 3.14845 15.6746 3.02294 16.5049H0.0698604V10.5986H2.74113C3.33021 12.0992 4.14189 12.4082 4.88845 13.004C6.18383 14.0521 9.26716 14.8146 12.0947 14.7901C16.358 14.7531 17.8239 13.9328 17.8239 12.7418C17.8239 11.5514 16.374 11.2653 11.7022 10.6226L7.73556 10.0508C3.25916 9.45512 0 8.57429 0 5.43092C0 2.1682 4.12295 0.119874 10.6419 0.119874C13.3889 0.119874 15.6872 0.443022 17.8931 1.54067C18.5041 1.8904 19.0772 1.9321 19.0695 0.620231ZM75.2799 10.1895L75.3367 3.83709C75.3367 3.00368 74.8441 2.71806 73.4369 2.71806H71.7833V0.741668H82.3038V2.71806H80.9326C79.5242 2.71806 79.0316 3.00421 79.0316 3.83709V16.6258L74.914 16.5971L61.579 5.48043V13.5538C61.579 14.3638 62.0715 14.6729 63.4788 14.6729H65.3094V16.6258H54.3833V14.6729H56.1938C57.6011 14.6729 58.0936 14.3633 58.0936 13.5538V3.83709C58.0936 3.00368 57.6011 2.71806 56.1938 2.71806H54.3833V0.741668H63.8299L75.2799 10.1895ZM40.0401 0C31.6556 0 26.4072 3.26324 26.4072 8.50184C26.4072 13.6466 31.5828 16.8848 39.7843 16.8848C48.4955 16.8848 53.5628 13.694 53.5628 8.2402C53.5634 3.33465 48.0953 0 40.0401 0ZM39.8494 14.8136C35.2084 14.8136 32.5407 12.4557 32.5407 8.38301C32.5407 4.40624 35.3245 2.04832 40.0815 2.04832C44.6449 2.04832 47.3126 4.45419 47.3126 8.55031C47.3126 12.5511 44.6059 14.8136 39.8494 14.8136Z" fill="#F40009"/>
<path fill-rule="evenodd" clip-rule="evenodd" d="M109.944 14.8256C109.944 14.6854 109.874 14.5379 109.733 14.4675C109.591 14.3935 109.432 14.3862 109.273 14.3862H108.451V16.0473H108.681V15.2811H109.105L109.644 16.0473H109.918L109.348 15.2811C109.684 15.2728 109.944 15.1524 109.944 14.8256ZM109.034 15.1211H108.68V14.5337H109.219C109.453 14.5337 109.71 14.565 109.71 14.8219C109.711 15.1602 109.299 15.1211 109.034 15.1211ZM99.1822 6.79491L102.634 3.55042C102.834 3.31223 102.933 3.14545 102.933 3.00264C102.933 2.76445 102.701 2.66907 101.969 2.66907H101.098V0.620752H110.524V2.66907H109.286C107.856 2.66907 107.59 2.85931 105.594 5.07442L100.134 10.2656V13.4335C100.134 14.2439 100.598 14.529 101.929 14.529H103.991V16.5054H90.7877V14.529H92.8492C94.1789 14.529 94.6448 14.2439 94.6448 13.4335V10.2656L88.2135 4.00231C87.1508 2.90726 87.2976 2.66907 84.3386 2.66907V0.620752H96.2788V2.66907H95.4287C94.5637 2.66907 94.1972 2.81188 94.1972 3.0975C94.1972 3.33621 94.4631 3.52645 94.6294 3.71669L97.8833 6.83869C98.2699 7.19258 98.7417 7.23845 99.1822 6.79491ZM19.0695 0.620231H21.9498V6.33573H19.2898C19.0541 5.19325 18.2418 4.74867 17.5012 4.14929C16.165 3.06831 13.2711 2.1682 10.8372 2.1682C7.69589 2.1682 5.04475 3.0261 5.04475 4.2874C5.04475 7.78884 23.0101 5.00249 23.0101 11.6228C23.0101 15.0758 19.1619 17.0047 12.251 17.0047C9.8586 17.0047 6.23829 16.3511 4.10222 15.3525C3.43263 15.0122 3.14845 15.6746 3.02294 16.5049H0.0698604V10.5986H2.74113C3.33021 12.0992 4.14189 12.4082 4.88845 13.004C6.18383 14.0521 9.26716 14.8146 12.0947 14.7901C16.358 14.7531 17.8239 13.9328 17.8239 12.7418C17.8239 11.5514 16.374 11.2653 11.7022 10.6226L7.73556 10.0508C3.25916 9.45512 0 8.57429 0 5.43092C0 2.1682 4.12295 0.119874 10.6419 0.119874C13.3889 0.119874 15.6872 0.443022 17.8931 1.54067C18.5041 1.8904 19.0772 1.9321 19.0695 0.620231ZM75.2799 10.1895L75.3367 3.83709C75.3367 3.00368 74.8441 2.71806 73.4369 2.71806H71.7833V0.741668H82.3038V2.71806H80.9326C79.5242 2.71806 79.0316 3.00421 79.0316 3.83709V16.6258L74.914 16.5971L61.579 5.48043V13.5538C61.579 14.3638 62.0715 14.6729 63.4788 14.6729H65.3094V16.6258H54.3833V14.6729H56.1938C57.6011 14.6729 58.0936 14.3633 58.0936 13.5538V3.83709C58.0936 3.00368 57.6011 2.71806 56.1938 2.71806H54.3833V0.741668H63.8299L75.2799 10.1895ZM40.0401 0C31.6556 0 26.4072 3.26324 26.4072 8.50184C26.4072 13.6466 31.5828 16.8848 39.7843 16.8848C48.4955 16.8848 53.5628 13.694 53.5628 8.2402C53.5634 3.33465 48.0953 0 40.0401 0ZM39.8494 14.8136C35.2084 14.8136 32.5407 12.4557 32.5407 8.38301C32.5407 4.40624 35.3245 2.04832 40.0815 2.04832C44.6449 2.04832 47.3126 4.45419 47.3126 8.55031C47.3126 12.5511 44.6059 14.8136 39.8494 14.8136Z" fill="#434343"/>
</svg>
